<mxfile host="app.diagrams.net" agent="Mozilla/5.0 (Windows NT 10.0; Win64; x64) AppleWebKit/537.36 (KHTML, like Gecko) Chrome/136.0.0.0 Safari/537.36 Edg/136.0.0.0" version="27.0.3">
  <diagram name="第 1 页" id="sS53NXLEoRzRVVWsUUTI">
    <mxGraphModel dx="1250" dy="688" grid="1" gridSize="10" guides="1" tooltips="1" connect="1" arrows="1" fold="1" page="1" pageScale="1" pageWidth="827" pageHeight="1169" math="0" shadow="0">
      <root>
        <mxCell id="0" />
        <mxCell id="1" parent="0" />
        <mxCell id="0e7CbPu21JDnjZyUHX5j-1" value="" style="edgeStyle=orthogonalEdgeStyle;rounded=0;orthogonalLoop=1;jettySize=auto;html=1;" edge="1" parent="1" source="_wLn5ls_Q7rBs55Hm41x-1" target="_wLn5ls_Q7rBs55Hm41x-4">
          <mxGeometry relative="1" as="geometry" />
        </mxCell>
        <mxCell id="_wLn5ls_Q7rBs55Hm41x-1" value="&lt;font style=&quot;font-size: 14px;&quot;&gt;开始&lt;/font&gt;" style="strokeWidth=2;html=1;shape=mxgraph.flowchart.terminator;whiteSpace=wrap;" parent="1" vertex="1">
          <mxGeometry x="180" y="335" width="100" height="50" as="geometry" />
        </mxCell>
        <mxCell id="_wLn5ls_Q7rBs55Hm41x-7" value="" style="edgeStyle=orthogonalEdgeStyle;rounded=0;orthogonalLoop=1;jettySize=auto;html=1;" parent="1" source="_wLn5ls_Q7rBs55Hm41x-4" target="_wLn5ls_Q7rBs55Hm41x-6" edge="1">
          <mxGeometry relative="1" as="geometry" />
        </mxCell>
        <mxCell id="_wLn5ls_Q7rBs55Hm41x-4" value="&lt;div style=&quot;line-height: 50%;&quot;&gt;&lt;p class=&quot;MsoNormal&quot;&gt;&lt;font style=&quot;font-size: 14px; line-height: 50%;&quot;&gt;是否为需要&lt;/font&gt;&lt;/p&gt;&lt;p class=&quot;MsoNormal&quot;&gt;&lt;font style=&quot;font-size: 14px; line-height: 50%;&quot;&gt;报警数据&lt;/font&gt;&lt;/p&gt;&lt;/div&gt;" style="rhombus;whiteSpace=wrap;html=1;strokeWidth=2;" parent="1" vertex="1">
          <mxGeometry x="165" y="420" width="130" height="80" as="geometry" />
        </mxCell>
        <mxCell id="_wLn5ls_Q7rBs55Hm41x-9" value="" style="edgeStyle=orthogonalEdgeStyle;rounded=0;orthogonalLoop=1;jettySize=auto;html=1;" parent="1" source="_wLn5ls_Q7rBs55Hm41x-6" target="_wLn5ls_Q7rBs55Hm41x-8" edge="1">
          <mxGeometry relative="1" as="geometry" />
        </mxCell>
        <mxCell id="_wLn5ls_Q7rBs55Hm41x-13" style="edgeStyle=orthogonalEdgeStyle;rounded=0;orthogonalLoop=1;jettySize=auto;html=1;" parent="1" source="_wLn5ls_Q7rBs55Hm41x-6" target="_wLn5ls_Q7rBs55Hm41x-12" edge="1">
          <mxGeometry relative="1" as="geometry" />
        </mxCell>
        <mxCell id="_wLn5ls_Q7rBs55Hm41x-6" value="&lt;p class=&quot;MsoNormal&quot;&gt;&lt;font face=&quot;Helvetica&quot; style=&quot;font-size: 14px;&quot;&gt;是否触发阈值&lt;/font&gt;&lt;/p&gt;" style="rhombus;whiteSpace=wrap;html=1;strokeWidth=2;" parent="1" vertex="1">
          <mxGeometry x="165" y="530" width="130" height="80" as="geometry" />
        </mxCell>
        <mxCell id="_wLn5ls_Q7rBs55Hm41x-23" value="" style="edgeStyle=orthogonalEdgeStyle;rounded=0;orthogonalLoop=1;jettySize=auto;html=1;" parent="1" source="_wLn5ls_Q7rBs55Hm41x-8" target="_wLn5ls_Q7rBs55Hm41x-22" edge="1">
          <mxGeometry relative="1" as="geometry" />
        </mxCell>
        <mxCell id="_wLn5ls_Q7rBs55Hm41x-8" value="&lt;p class=&quot;MsoNormal&quot;&gt;&lt;font style=&quot;font-size: 14px;&quot;&gt;是否连续三次触发&lt;/font&gt;&lt;/p&gt;" style="rhombus;whiteSpace=wrap;html=1;strokeWidth=2;" parent="1" vertex="1">
          <mxGeometry x="330" y="530" width="130" height="80" as="geometry" />
        </mxCell>
        <mxCell id="_wLn5ls_Q7rBs55Hm41x-12" value="&lt;font style=&quot;font-size: 14px;&quot;&gt;结束&lt;/font&gt;" style="strokeWidth=2;html=1;shape=mxgraph.flowchart.terminator;whiteSpace=wrap;" parent="1" vertex="1">
          <mxGeometry x="180" y="650" width="100" height="50" as="geometry" />
        </mxCell>
        <mxCell id="_wLn5ls_Q7rBs55Hm41x-14" style="edgeStyle=orthogonalEdgeStyle;rounded=0;orthogonalLoop=1;jettySize=auto;html=1;exitX=0.5;exitY=1;exitDx=0;exitDy=0;entryX=1;entryY=0.5;entryDx=0;entryDy=0;entryPerimeter=0;" parent="1" source="_wLn5ls_Q7rBs55Hm41x-8" target="_wLn5ls_Q7rBs55Hm41x-12" edge="1">
          <mxGeometry relative="1" as="geometry">
            <Array as="points">
              <mxPoint x="395" y="675" />
            </Array>
          </mxGeometry>
        </mxCell>
        <mxCell id="_wLn5ls_Q7rBs55Hm41x-19" value="" style="endArrow=none;html=1;rounded=0;" parent="1" edge="1">
          <mxGeometry width="50" height="50" relative="1" as="geometry">
            <mxPoint x="138" y="460" as="sourcePoint" />
            <mxPoint x="168" y="459.5" as="targetPoint" />
          </mxGeometry>
        </mxCell>
        <mxCell id="_wLn5ls_Q7rBs55Hm41x-20" value="" style="endArrow=none;html=1;rounded=0;" parent="1" edge="1">
          <mxGeometry width="50" height="50" relative="1" as="geometry">
            <mxPoint x="139" y="680" as="sourcePoint" />
            <mxPoint x="138.57999999999998" y="460" as="targetPoint" />
          </mxGeometry>
        </mxCell>
        <mxCell id="_wLn5ls_Q7rBs55Hm41x-21" value="" style="endArrow=classic;html=1;rounded=0;" parent="1" edge="1">
          <mxGeometry width="50" height="50" relative="1" as="geometry">
            <mxPoint x="140" y="678.58" as="sourcePoint" />
            <mxPoint x="180" y="678.58" as="targetPoint" />
          </mxGeometry>
        </mxCell>
        <mxCell id="_wLn5ls_Q7rBs55Hm41x-25" value="" style="edgeStyle=orthogonalEdgeStyle;rounded=0;orthogonalLoop=1;jettySize=auto;html=1;" parent="1" source="_wLn5ls_Q7rBs55Hm41x-22" target="_wLn5ls_Q7rBs55Hm41x-24" edge="1">
          <mxGeometry relative="1" as="geometry" />
        </mxCell>
        <mxCell id="_wLn5ls_Q7rBs55Hm41x-22" value="&lt;p class=&quot;MsoNormal&quot;&gt;&lt;font face=&quot;Helvetica&quot; style=&quot;font-size: 14px;&quot;&gt;发送报警邮件&lt;/font&gt;&lt;span style=&quot;mso-spacerun:&#39;yes&#39;;font-family:宋体;mso-ascii-font-family:Calibri;&lt;br/&gt;mso-hansi-font-family:Calibri;mso-bidi-font-family:&#39;Times New Roman&#39;;font-size:10.5000pt;&lt;br/&gt;mso-font-kerning:1.0000pt;&quot;&gt;&lt;/span&gt;&lt;/p&gt;" style="whiteSpace=wrap;html=1;strokeWidth=2;" parent="1" vertex="1">
          <mxGeometry x="335" y="450" width="120" height="50" as="geometry" />
        </mxCell>
        <mxCell id="_wLn5ls_Q7rBs55Hm41x-27" value="" style="edgeStyle=orthogonalEdgeStyle;rounded=0;orthogonalLoop=1;jettySize=auto;html=1;" parent="1" source="_wLn5ls_Q7rBs55Hm41x-24" target="_wLn5ls_Q7rBs55Hm41x-26" edge="1">
          <mxGeometry relative="1" as="geometry" />
        </mxCell>
        <mxCell id="_wLn5ls_Q7rBs55Hm41x-24" value="&lt;div style=&quot;line-height: 50%;&quot;&gt;&lt;p class=&quot;MsoNormal&quot;&gt;&lt;font style=&quot;font-size: 14px; line-height: 50%;&quot; face=&quot;Helvetica&quot;&gt;&lt;font&gt;WebSocket&lt;/font&gt;&lt;font&gt;实时&lt;/font&gt;&lt;/font&gt;&lt;/p&gt;&lt;p class=&quot;MsoNormal&quot;&gt;&lt;font face=&quot;Helvetica&quot;&gt;&lt;font style=&quot;font-size: 14px; line-height: 50%;&quot;&gt;推送报警弹框&lt;/font&gt;&lt;/font&gt;&lt;/p&gt;&lt;/div&gt;" style="whiteSpace=wrap;html=1;strokeWidth=2;" parent="1" vertex="1">
          <mxGeometry x="335" y="355" width="120" height="60" as="geometry" />
        </mxCell>
        <mxCell id="_wLn5ls_Q7rBs55Hm41x-29" value="" style="edgeStyle=orthogonalEdgeStyle;rounded=0;orthogonalLoop=1;jettySize=auto;html=1;" parent="1" source="_wLn5ls_Q7rBs55Hm41x-26" target="_wLn5ls_Q7rBs55Hm41x-28" edge="1">
          <mxGeometry relative="1" as="geometry" />
        </mxCell>
        <mxCell id="_wLn5ls_Q7rBs55Hm41x-26" value="&lt;p class=&quot;MsoNormal&quot;&gt;&lt;font face=&quot;Helvetica&quot; style=&quot;font-size: 14px;&quot;&gt;报警铃声响起&lt;/font&gt;&lt;/p&gt;" style="whiteSpace=wrap;html=1;strokeWidth=2;" parent="1" vertex="1">
          <mxGeometry x="335" y="270" width="120" height="50" as="geometry" />
        </mxCell>
        <mxCell id="_wLn5ls_Q7rBs55Hm41x-31" value="" style="edgeStyle=orthogonalEdgeStyle;rounded=0;orthogonalLoop=1;jettySize=auto;html=1;" parent="1" source="_wLn5ls_Q7rBs55Hm41x-28" target="_wLn5ls_Q7rBs55Hm41x-30" edge="1">
          <mxGeometry relative="1" as="geometry" />
        </mxCell>
        <mxCell id="_wLn5ls_Q7rBs55Hm41x-28" value="&lt;p class=&quot;MsoNormal&quot;&gt;&lt;font style=&quot;font-size: 14px;&quot;&gt;对应图标变红&lt;/font&gt;&lt;/p&gt;" style="whiteSpace=wrap;html=1;strokeWidth=2;" parent="1" vertex="1">
          <mxGeometry x="510" y="267.5" width="105" height="55" as="geometry" />
        </mxCell>
        <mxCell id="_wLn5ls_Q7rBs55Hm41x-33" value="" style="edgeStyle=orthogonalEdgeStyle;rounded=0;orthogonalLoop=1;jettySize=auto;html=1;" parent="1" source="_wLn5ls_Q7rBs55Hm41x-30" target="_wLn5ls_Q7rBs55Hm41x-32" edge="1">
          <mxGeometry relative="1" as="geometry" />
        </mxCell>
        <mxCell id="_wLn5ls_Q7rBs55Hm41x-35" value="" style="edgeStyle=orthogonalEdgeStyle;rounded=0;orthogonalLoop=1;jettySize=auto;html=1;" parent="1" source="_wLn5ls_Q7rBs55Hm41x-30" target="_wLn5ls_Q7rBs55Hm41x-34" edge="1">
          <mxGeometry relative="1" as="geometry" />
        </mxCell>
        <mxCell id="_wLn5ls_Q7rBs55Hm41x-30" value="&lt;p class=&quot;MsoNormal&quot;&gt;&lt;font face=&quot;Helvetica&quot; style=&quot;font-size: 14px;&quot;&gt;报警信息是否处理&lt;/font&gt;&lt;/p&gt;" style="rhombus;whiteSpace=wrap;html=1;strokeWidth=2;" parent="1" vertex="1">
          <mxGeometry x="497.5" y="360" width="130" height="80" as="geometry" />
        </mxCell>
        <mxCell id="_wLn5ls_Q7rBs55Hm41x-32" value="&lt;p class=&quot;MsoNormal&quot;&gt;&lt;font face=&quot;Helvetica&quot; style=&quot;font-size: 14px;&quot;&gt;显示已处理&lt;/font&gt;&lt;/p&gt;" style="whiteSpace=wrap;html=1;strokeWidth=2;" parent="1" vertex="1">
          <mxGeometry x="508.75" y="470" width="107.5" height="60" as="geometry" />
        </mxCell>
        <mxCell id="_wLn5ls_Q7rBs55Hm41x-34" value="&lt;p class=&quot;MsoNormal&quot;&gt;&lt;font face=&quot;Helvetica&quot; style=&quot;font-size: 14px;&quot;&gt;显示未处理&lt;/font&gt;&lt;span style=&quot;mso-spacerun:&#39;yes&#39;;font-family:宋体;mso-ascii-font-family:Calibri;&lt;br/&gt;mso-hansi-font-family:Calibri;mso-bidi-font-family:&#39;Times New Roman&#39;;font-size:10.5000pt;&lt;br/&gt;mso-font-kerning:1.0000pt;&quot;&gt;&lt;/span&gt;&lt;/p&gt;" style="whiteSpace=wrap;html=1;strokeWidth=2;" parent="1" vertex="1">
          <mxGeometry x="670" y="370" width="100" height="60" as="geometry" />
        </mxCell>
        <mxCell id="_wLn5ls_Q7rBs55Hm41x-36" value="" style="endArrow=none;html=1;rounded=0;entryX=0.5;entryY=1;entryDx=0;entryDy=0;" parent="1" edge="1">
          <mxGeometry width="50" height="50" relative="1" as="geometry">
            <mxPoint x="721" y="500" as="sourcePoint" />
            <mxPoint x="721.25" y="430" as="targetPoint" />
          </mxGeometry>
        </mxCell>
        <mxCell id="_wLn5ls_Q7rBs55Hm41x-37" value="" style="endArrow=classic;html=1;rounded=0;" parent="1" edge="1">
          <mxGeometry width="50" height="50" relative="1" as="geometry">
            <mxPoint x="720" y="500" as="sourcePoint" />
            <mxPoint x="620" y="500" as="targetPoint" />
          </mxGeometry>
        </mxCell>
        <mxCell id="_wLn5ls_Q7rBs55Hm41x-39" value="" style="endArrow=none;html=1;rounded=0;entryX=0.57;entryY=1;entryDx=0;entryDy=0;entryPerimeter=0;" parent="1" edge="1">
          <mxGeometry width="50" height="50" relative="1" as="geometry">
            <mxPoint x="566" y="677" as="sourcePoint" />
            <mxPoint x="566.0250000000003" y="530" as="targetPoint" />
          </mxGeometry>
        </mxCell>
        <mxCell id="_wLn5ls_Q7rBs55Hm41x-41" value="" style="endArrow=none;html=1;rounded=0;" parent="1" edge="1">
          <mxGeometry width="50" height="50" relative="1" as="geometry">
            <mxPoint x="396" y="675.58" as="sourcePoint" />
            <mxPoint x="566" y="676" as="targetPoint" />
          </mxGeometry>
        </mxCell>
        <mxCell id="_wLn5ls_Q7rBs55Hm41x-42" value="&lt;font style=&quot;font-size: 14px;&quot;&gt;Y&lt;/font&gt;" style="text;html=1;align=center;verticalAlign=middle;whiteSpace=wrap;rounded=0;" parent="1" vertex="1">
          <mxGeometry x="185" y="500" width="60" height="30" as="geometry" />
        </mxCell>
        <mxCell id="_wLn5ls_Q7rBs55Hm41x-43" value="&lt;font style=&quot;font-size: 14px;&quot;&gt;N&lt;/font&gt;" style="text;html=1;align=center;verticalAlign=middle;whiteSpace=wrap;rounded=0;" parent="1" vertex="1">
          <mxGeometry x="120" y="433" width="60" height="30" as="geometry" />
        </mxCell>
        <mxCell id="_wLn5ls_Q7rBs55Hm41x-44" value="&lt;font style=&quot;font-size: 14px;&quot;&gt;N&lt;/font&gt;" style="text;html=1;align=center;verticalAlign=middle;whiteSpace=wrap;rounded=0;" parent="1" vertex="1">
          <mxGeometry x="186" y="620" width="60" height="30" as="geometry" />
        </mxCell>
        <mxCell id="_wLn5ls_Q7rBs55Hm41x-45" value="&lt;font style=&quot;font-size: 14px;&quot;&gt;Y&lt;/font&gt;" style="text;html=1;align=center;verticalAlign=middle;whiteSpace=wrap;rounded=0;" parent="1" vertex="1">
          <mxGeometry x="277" y="542" width="60" height="30" as="geometry" />
        </mxCell>
        <mxCell id="_wLn5ls_Q7rBs55Hm41x-46" value="&lt;font style=&quot;font-size: 14px;&quot;&gt;N&lt;/font&gt;" style="text;html=1;align=center;verticalAlign=middle;whiteSpace=wrap;rounded=0;" parent="1" vertex="1">
          <mxGeometry x="616.25" y="370" width="60" height="30" as="geometry" />
        </mxCell>
        <mxCell id="_wLn5ls_Q7rBs55Hm41x-47" value="&lt;font style=&quot;font-size: 14px;&quot;&gt;Y&lt;/font&gt;" style="text;html=1;align=center;verticalAlign=middle;whiteSpace=wrap;rounded=0;" parent="1" vertex="1">
          <mxGeometry x="354" y="505" width="60" height="30" as="geometry" />
        </mxCell>
        <mxCell id="_wLn5ls_Q7rBs55Hm41x-48" value="&lt;font style=&quot;font-size: 14px;&quot;&gt;N&lt;/font&gt;" style="text;html=1;align=center;verticalAlign=middle;whiteSpace=wrap;rounded=0;" parent="1" vertex="1">
          <mxGeometry x="348" y="620" width="60" height="30" as="geometry" />
        </mxCell>
        <mxCell id="_wLn5ls_Q7rBs55Hm41x-49" value="&lt;font style=&quot;font-size: 14px;&quot;&gt;Y&lt;/font&gt;" style="text;html=1;align=center;verticalAlign=middle;whiteSpace=wrap;rounded=0;" parent="1" vertex="1">
          <mxGeometry x="520" y="440" width="60" height="30" as="geometry" />
        </mxCell>
      </root>
    </mxGraphModel>
  </diagram>
</mxfile>
